<svg width="152" height="19" viewBox="0 0 152 19" fill="none" xmlns="http://www.w3.org/2000/svg">
<path d="M75.698 16.5238H70.4741V2.5581H75.698V16.5238ZM70.9843 16.0136H75.1879V3.06825H70.9843V16.0136ZM82.9665 16.5238H77.8477V2.5581H88.5424C90.0744 2.43404 91.6002 2.86416 92.8418 3.7702C93.3764 4.25924 93.7907 4.86516 94.0524 5.54069C94.3142 6.21623 94.4163 6.94312 94.3508 7.66463C94.4272 8.91139 94.0304 10.1411 93.2398 11.1081C92.3042 12.1814 90.7472 12.7344 88.6128 12.7538C88.0751 12.7681 84.046 12.7538 82.9696 12.7538L82.9665 16.5238ZM78.3548 16.0136H82.4564V12.2386H82.7125C82.7645 12.2386 87.9955 12.2549 88.6005 12.2386C90.5891 12.2212 92.0185 11.7284 92.8541 10.7663C93.5579 9.89135 93.9074 8.78404 93.8336 7.66361C93.8963 7.01713 93.8093 6.36488 93.5793 5.75745C93.3492 5.15003 92.9824 4.60375 92.5072 4.16097C91.3559 3.33464 89.9473 2.94676 88.5352 3.06723H78.3579L78.3548 16.0136ZM87.4588 9.61644H82.4217V5.81485H87.4925C87.8519 5.76519 88.2181 5.80714 88.557 5.93681C88.8959 6.06649 89.1966 6.27968 89.431 6.5566C89.6438 6.91058 89.744 7.32077 89.7188 7.73299C89.7378 8.1157 89.6552 8.49664 89.479 8.83694C89.2371 9.12862 88.9242 9.35315 88.5703 9.48895C88.2166 9.62475 87.8338 9.66725 87.4588 9.61236V9.61644ZM82.9318 9.10629H87.4588C88.2955 9.10629 88.8138 8.93183 89.0433 8.57268C89.1697 8.31165 89.227 8.02251 89.2096 7.73299C89.232 7.42901 89.1661 7.12504 89.0199 6.85758L89.0137 6.8484C88.7709 6.4913 88.2883 6.325 87.4925 6.325H82.9318V9.10629ZM103.661 16.7299C99.0799 16.7299 96.3455 15.5922 95.3038 13.2527C95.1333 12.8008 95.0176 12.3302 94.9589 11.8509L94.914 11.557H100.364L100.4 11.7713C100.442 11.9888 100.535 12.1936 100.669 12.3692C100.885 12.6293 101.603 13.066 103.986 13.066C106.851 13.066 106.851 12.563 106.851 12.2926C106.851 11.8366 106.52 11.6805 104.183 11.4315L103.74 11.3897C102.86 11.307 101.748 11.202 101.24 11.1581C96.9546 10.7704 95.0416 9.43891 95.0416 6.84228C95.0416 4.11506 98.2973 2.35303 103.336 2.35303C107.447 2.35303 110.096 3.43657 111.207 5.57611C111.47 6.07378 111.648 6.61271 111.73 7.16979L111.766 7.45649H106.31L106.287 7.22591C106.266 7.04571 106.189 6.87665 106.067 6.74229C105.863 6.46886 105.218 6.01687 103.216 6.01687C100.758 6.01687 100.419 6.33112 100.419 6.66985C100.419 7.12184 101.196 7.28202 103.684 7.54832C104.722 7.633 106.39 7.80441 106.962 7.87379C110.554 8.26354 112.157 9.56236 112.157 12.0865C112.158 14.2036 110.684 16.7299 103.661 16.7299ZM95.5099 12.0672C95.561 12.4036 95.6489 12.7334 95.7721 13.0507C96.721 15.1821 99.3023 16.2197 103.661 16.2197C107.305 16.2197 111.651 15.5055 111.651 12.0865C111.651 9.84906 110.233 8.74103 106.907 8.38087C106.336 8.31149 104.678 8.1411 103.643 8.0554C100.99 7.76768 99.9114 7.61464 99.9114 6.66985C99.9114 5.69242 101.074 5.50673 103.218 5.50673C104.913 5.50673 106.008 5.81281 106.472 6.43009C106.598 6.58216 106.694 6.75755 106.753 6.94635H111.175C111.087 6.55175 110.946 6.17062 110.757 5.81281C109.737 3.85489 107.244 2.86317 103.339 2.86317C98.6095 2.86317 95.5538 4.42523 95.5538 6.84228C95.5538 9.14813 97.2689 10.2868 101.287 10.65C101.797 10.6939 102.908 10.7989 103.789 10.8826L104.236 10.9244C106.407 11.153 107.364 11.2958 107.364 12.2926C107.364 13.366 106.126 13.5762 103.988 13.5762C102.011 13.5762 100.762 13.2793 100.28 12.6946C100.131 12.5082 100.019 12.2953 99.9492 12.0672H95.5099ZM121.85 16.7125C116.524 16.7125 113.585 14.5587 113.585 10.6469V2.5581H118.74V10.6469C118.74 11.9886 119.941 12.7579 122.033 12.7579C124.033 12.7579 125.275 11.9549 125.275 10.6643V2.5581H130.376V11.0754C130.381 14.6577 127.27 16.7125 121.847 16.7125H121.85ZM114.095 3.06825V10.6469C114.095 15.481 118.95 16.2024 121.85 16.2024C124.847 16.2024 129.874 15.5361 129.874 11.0754V3.06825H125.793V10.6643C125.793 12.2457 124.32 13.268 122.041 13.268C119.66 13.268 118.238 12.2886 118.238 10.6469V3.06825H114.095ZM151.994 16.5238H147.129V10.2184L144.37 16.5238H140.127L137.397 10.2306V16.5238H132.515V2.5581H138.936L142.273 10.2582L145.77 2.5581H152L151.994 16.5238ZM147.639 16.0136H151.484V3.06825H146.095L142.256 11.5152L138.598 3.06825H133.021V16.0136H136.882V7.77584L140.453 16.0167H144.024L147.633 7.78808L147.639 16.0136ZM4.64638 2.81318H0V16.2687H12.8393V12.6865H4.64638V2.81318ZM22.2177 2.50709C16.2868 2.50709 13.1678 5.31798 13.1678 9.44503C13.1678 14.1077 16.4419 16.4727 22.2177 16.4727C28.5761 16.4727 31.2503 13.7302 31.2503 9.44503C31.2503 5.09351 28.2333 2.50505 22.2177 2.50505V2.50709ZM22.2004 6.00361C22.6041 6.00171 23.0076 6.02522 23.4084 6.07401L18.2141 11.2683C17.9683 10.7123 17.8485 10.1088 17.8631 9.50114C17.8631 7.39017 18.9263 6.00157 22.2004 6.00157V6.00361ZM22.2177 13.0313C21.8287 13.0331 21.44 13.0112 21.0536 12.966L26.257 7.76258C26.4936 8.30935 26.6069 8.90155 26.5886 9.49706C26.5886 11.5509 25.6091 13.0293 22.2177 13.0293V13.0313ZM40.4563 11.1948H45.2384C45.168 11.5267 45.0213 11.8376 44.8099 12.1029C43.8185 12.9105 42.5532 13.3035 41.2787 13.1997C40.6371 13.2683 39.9884 13.1982 39.3764 12.9942C38.7643 12.7902 38.2031 12.457 37.7312 12.0172C37.2476 11.308 37.018 10.4562 37.0792 9.60011C37.0009 8.70302 37.2507 7.808 37.7822 7.08103C38.4505 6.32602 39.582 6.00055 41.245 6.00055C42.3032 5.91293 43.36 6.18469 44.2447 6.77188C44.5235 6.99336 44.7319 7.29111 44.8446 7.62892H49.2798C49.2475 7.07232 49.1137 6.52633 48.8849 6.01789C47.8228 3.85795 45.3537 2.57239 41.1552 2.57239C37.5036 2.57239 35.0529 3.68654 33.699 5.36695C32.8048 6.58044 32.3458 8.05993 32.3961 9.56644C32.3382 11.1071 32.7854 12.6243 33.6694 13.8873C35.007 15.6218 37.3894 16.4748 40.2523 16.4748C42.1556 16.6075 44.046 16.0744 45.5996 14.9668L45.72 16.2687H49.4042V8.29823H40.4563V11.1948ZM59.8611 2.50403C53.9312 2.50403 50.8112 5.31491 50.8112 9.44197C50.8112 14.1047 54.0843 16.4697 59.8611 16.4697C66.2206 16.4697 68.8947 13.7272 68.8947 9.44197C68.8947 5.09351 65.8778 2.50505 59.8611 2.50505V2.50403ZM59.8448 6.00055C60.2379 5.99938 60.6307 6.02187 61.0212 6.06788L55.8473 11.2448C55.6092 10.695 55.4933 10.1002 55.5076 9.50114C55.5035 7.39017 56.5707 6.00055 59.8448 6.00055ZM59.8611 13.0283C59.4618 13.03 59.0628 13.0067 58.6664 12.9589L63.8872 7.73707C64.1328 8.29112 64.2503 8.89338 64.231 9.4991C64.2331 11.5509 63.2577 13.0293 59.8611 13.0293V13.0283Z" fill="#F1F1F1"/>
</svg>
