<svg width="32" height="32" viewBox="0 0 32 32" fill="none" xmlns="http://www.w3.org/2000/svg">
<path fill-rule="evenodd" clip-rule="evenodd" d="M16.0005 2.6665C8.63641 2.6665 2.66663 8.63737 2.66663 16.0004C2.66663 23.3645 8.63641 29.3332 16.0005 29.3332C23.3646 29.3332 29.3344 23.3645 29.3344 16.0004C29.3344 8.63737 23.364 2.6665 16.0005 2.6665ZM19.5293 15.9446H17.2204C17.2204 19.6342 17.2204 24.1789 17.2204 24.1789H13.7983C13.7983 24.1789 13.7983 19.6808 13.7983 15.9446H12.1706V13.0374H13.7983V11.1536C13.7983 9.80534 14.4383 7.70062 17.2524 7.70062L19.7865 7.71036V10.5342C19.7865 10.5342 18.2455 10.5342 17.9466 10.5342C17.646 10.5342 17.221 10.6842 17.221 11.3253V13.038H19.8298L19.5293 15.9446Z" fill="#424852"></path>
</svg>