<svg width="24" height="24" viewBox="0 0 24 24" fill="none" xmlns="http://www.w3.org/2000/svg">
<path fill-rule="evenodd" clip-rule="evenodd" d="M21.5986 14.4088V21.5062H17.484V14.8828C17.484 13.2188 16.8886 12.0835 15.3993 12.0835C14.2613 12.0835 13.5853 12.8488 13.2873 13.5895C13.1793 13.8542 13.1506 14.2215 13.1506 14.5928V21.5062H9.03464C9.03464 21.5062 9.08931 10.2888 9.03464 9.12749H13.1506V10.8828C13.1426 10.8962 13.132 10.9102 13.1233 10.9228H13.1506V10.8828C13.6973 10.0395 14.674 8.83749 16.86 8.83749C19.5693 8.83682 21.5986 10.6068 21.5986 14.4088ZM4.73064 3.16016C3.32197 3.16016 2.40131 4.08482 2.40131 5.29949C2.40131 6.48616 3.29597 7.43882 4.67597 7.43882H4.70331C6.13731 7.43882 7.03064 6.48682 7.03064 5.29949C7.00331 4.08482 6.13731 3.16016 4.72931 3.16016H4.73064ZM2.64597 21.5068H6.76064V9.12816H2.64597V21.5068Z" fill="#020102"></path>
</svg>