<svg width="32" height="32" viewBox="0 0 32 32" fill="none" xmlns="http://www.w3.org/2000/svg">
<path fill-rule="evenodd" clip-rule="evenodd" d="M16 2.6665C8.63617 2.6665 2.66663 8.63605 2.66663 15.9998C2.66663 23.3647 8.63617 29.3332 16 29.3332C23.3627 29.3332 29.3322 23.3647 29.3322 15.9998C29.3322 8.63659 23.3621 2.6665 16 2.6665ZM23.426 22.4762C23.426 23.0696 22.9333 23.5493 22.3263 23.5493H9.64653C9.03847 23.5493 8.54683 23.0691 8.54683 22.4762V9.64965C8.54683 9.0573 9.03847 8.57649 9.64653 8.57649H22.3258C22.9328 8.57649 23.4255 9.05784 23.4255 9.64965V22.4762H23.426ZM16.5479 15.3079C16.8468 14.8465 17.3812 14.1919 18.573 14.1919C20.0511 14.1919 21.1606 15.1573 21.1611 17.2344V21.1096H18.9141V17.4926C18.9141 16.5841 18.5892 15.9636 17.7748 15.9636C17.1549 15.9636 16.7851 16.3837 16.6221 16.7866C16.5625 16.9317 16.5479 17.1315 16.5479 17.3345V21.1101H14.3009C14.3009 21.1101 14.3307 14.9841 14.3009 14.3506H16.5479V15.3079ZM16.5479 15.3079C16.5441 15.3154 16.5387 15.3236 16.5333 15.3301H16.5479V15.3079ZM11.9482 11.0899C11.1799 11.0899 10.6764 11.5956 10.6764 12.2589C10.6764 12.907 11.1637 13.4274 11.9185 13.4274H11.9331C12.7166 13.4274 13.2044 12.907 13.2044 12.2589C13.1898 11.5956 12.7171 11.0899 11.9482 11.0899ZM13.0577 14.3506H10.8101V21.1101H13.0577V14.3506Z" fill="#424852"></path>
</svg>