<svg width="24" height="24" viewBox="0 0 24 24" fill="none" xmlns="http://www.w3.org/2000/svg">
<path fill-rule="evenodd" clip-rule="evenodd" d="M22 5.92396C21.2648 6.25078 20.4735 6.47123 19.6433 6.56988C20.491 6.0624 21.1409 5.25855 21.4475 4.29962C20.6546 4.77015 19.7768 5.11158 18.8418 5.2959C18.0936 4.49855 17.0271 4 15.8469 4C13.5811 4 11.744 5.83708 11.744 8.10328C11.744 8.42442 11.7802 8.73743 11.8504 9.03826C8.44013 8.86694 5.41636 7.23366 3.39253 4.75107C3.03932 5.3568 2.83714 6.06159 2.83714 6.81428C2.83714 8.23766 3.56142 9.49378 4.66244 10.2294C3.99013 10.2079 3.35721 10.0232 2.80385 9.71585C2.80344 9.7329 2.80344 9.75036 2.80344 9.76782C2.80344 11.7555 4.21789 13.4136 6.09516 13.7911C5.75089 13.8845 5.38834 13.9348 5.01403 13.9348C4.74933 13.9348 4.49234 13.9093 4.24184 13.861C4.76435 15.491 6.27948 16.6777 8.07474 16.7106C6.67044 17.8112 4.90157 18.4672 2.97883 18.4672C2.64795 18.4672 2.32113 18.4478 2 18.4096C3.81637 19.5744 5.97296 20.2532 8.28991 20.2532C15.8376 20.2532 19.9644 14.001 19.9644 8.57869C19.9644 8.40087 19.9607 8.22345 19.953 8.04726C20.7544 7.46995 21.4503 6.74689 22 5.92396Z" fill="#020102"></path>
</svg>