<svg width="374" height="279" viewBox="0 0 374 279" fill="none" xmlns="http://www.w3.org/2000/svg">
<g filter="url(#filter0_d_277_986)">
<path d="M233.728 1.79862L278.036 147.999L367.497 184.055L368.918 188.746L103.099 269.306L66.0692 234.5L63 231.615L60 228.795L57.3003 226.258L55 224.096L52.9664 222.184L51.3078 216.712L50 216L6.00001 70L232.5 1.00002L233.728 1.79862Z" fill="#C6C6C6"/>
<path d="M7.00001 70.5113L51.3078 216.712M7.00001 70.5113L233.728 1.79862M7.00001 70.5113L6.00001 70M51.3078 216.712L278.036 147.999M51.3078 216.712L52.9664 222.184L55 224.096M51.3078 216.712L54.5 219.627M51.3078 216.712L50 216L6.00001 70M278.036 147.999L233.728 1.79862M278.036 147.999L367.497 184.055M233.728 1.79862L232.5 1.00002L6.00001 70M103.241 264.141L367.497 184.055M103.241 264.141L103.099 269.306M103.241 264.141L66.4057 230.5M367.497 184.055L368.918 188.746L103.099 269.306M103.099 269.306L66.0692 234.5M93 222.184L112 216.712M112 233L292.5 178.5M106.5 155.5L202.5 64M132 118L147 102.5M54.5 219.627L55 224.096M54.5 219.627L57.3003 222.184M55 224.096L57.3003 226.258M57.3003 222.184L57.3003 226.258M57.3003 222.184L60 224.65M57.3003 226.258L60 228.795M60 224.65L60 228.795M60 224.65L63 227.39M60 228.795L63 231.615M63 227.39L63 231.615M63 227.39L66.4057 230.5M63 231.615L66.0692 234.5M66.4057 230.5L66.0692 234.5M197.5 222.184L204.5 228.795L243.5 216.712L236.5 211M18.2064 76.505L225.389 13.7158L264.958 144.28L57.7754 207.069L18.2064 76.505ZM63.5 218.5L99.5 248C190.883 220.859 242.117 205.642 333.5 178.5L278.036 155.5L63.5 218.5Z" stroke="#020102" stroke-width="1.63387"/>
</g>
<defs>
<filter id="filter0_d_277_986" x="0.982796" y="0.107666" width="372.954" height="278.117" filterUnits="userSpaceOnUse" color-interpolation-filters="sRGB">
<feFlood flood-opacity="0" result="BackgroundImageFix"/>
<feColorMatrix in="SourceAlpha" type="matrix" values="0 0 0 0 0 0 0 0 0 0 0 0 0 0 0 0 0 0 127 0" result="hardAlpha"/>
<feOffset dy="4"/>
<feGaussianBlur stdDeviation="2"/>
<feComposite in2="hardAlpha" operator="out"/>
<feColorMatrix type="matrix" values="0 0 0 0 0 0 0 0 0 0 0 0 0 0 0 0 0 0 0.25 0"/>
<feBlend mode="normal" in2="BackgroundImageFix" result="effect1_dropShadow_277_986"/>
<feBlend mode="normal" in="SourceGraphic" in2="effect1_dropShadow_277_986" result="shape"/>
</filter>
</defs>
</svg>
