<svg width="32" height="32" viewBox="0 0 32 32" fill="none" xmlns="http://www.w3.org/2000/svg">
<path fill-rule="evenodd" clip-rule="evenodd" d="M16.0004 2.6665C8.63657 2.6665 2.66663 8.63542 2.66663 15.9993C2.66663 23.3632 8.63657 29.3332 16.0004 29.3332C23.3638 29.3332 29.3338 23.3632 29.3338 15.9993C29.3338 8.63542 23.3638 2.6665 16.0004 2.6665ZM16.0499 23.7415C15.2191 23.7415 14.4171 23.6277 13.6599 23.4168L10.823 24.9835V22.0237C8.92946 20.6008 7.7178 18.4216 7.7178 15.9787C7.7178 11.6915 11.4482 8.216 16.0498 8.216C20.6515 8.216 24.3819 11.6915 24.3819 15.9787C24.3819 20.2661 20.6516 23.7415 16.0499 23.7415ZM10.6159 18.6698L15.1701 13.8052L17.3437 16.0822L21.4321 13.8052L16.8779 18.6698L14.7561 16.3928L10.6159 18.6698Z" fill="#424852"></path>
</svg>