<svg width="32" height="32" viewBox="0 0 32 32" fill="none" xmlns="http://www.w3.org/2000/svg">
<path fill-rule="evenodd" clip-rule="evenodd" d="M16.0005 2.6665C8.63641 2.6665 2.66663 8.63737 2.66663 16.0004C2.66663 23.3645 8.63641 29.3332 16.0005 29.3332C23.3646 29.3332 29.3333 23.3645 29.3333 16.0004C29.3333 8.63737 23.364 2.6665 16.0005 2.6665ZM22.717 13.3119C22.724 13.456 22.7267 13.6006 22.7267 13.7467C22.7267 18.1874 19.3468 23.3071 13.1664 23.3071C11.2691 23.3071 9.50223 22.751 8.01534 21.798C8.2785 21.8288 8.54544 21.8445 8.81672 21.8445C10.3913 21.8445 11.8403 21.3074 12.9899 20.4064C11.5198 20.3788 10.2793 19.4068 9.85149 18.0721C10.0562 18.1121 10.2668 18.1322 10.4834 18.1322C10.7899 18.1322 11.0866 18.0921 11.3687 18.0147C9.83091 17.706 8.67269 16.3469 8.67269 14.7203C8.67269 14.7057 8.67269 14.6916 8.67323 14.677C9.12591 14.9288 9.6441 15.0799 10.1953 15.0977C9.29322 14.494 8.70031 13.4668 8.70031 12.3005C8.70031 11.6848 8.866 11.107 9.15515 10.6111C10.8126 12.6438 13.2888 13.9818 16.0817 14.1215C16.0243 13.8762 15.9945 13.619 15.9945 13.3558C15.9945 11.5007 17.4988 9.99594 19.355 9.99594C20.3215 9.99594 21.1943 10.4042 21.8073 11.0567C22.573 10.9067 23.292 10.6262 23.9413 10.2412C23.6895 11.0264 23.1572 11.6848 22.463 12.1001C23.1437 12.0189 23.7913 11.838 24.3934 11.5711C23.944 12.2463 23.3738 12.8382 22.717 13.3119Z" fill="#424852"></path>
</svg>