<svg width="32" height="32" viewBox="0 0 32 32" fill="none" xmlns="http://www.w3.org/2000/svg">
<path fill-rule="evenodd" clip-rule="evenodd" d="M2.66663 15.9998C2.66663 8.62856 8.62869 2.6665 16 2.6665C23.3712 2.6665 29.3875 8.62856 29.3333 15.9998C29.3333 23.3711 23.3712 29.3332 16 29.3332C8.62869 29.3332 2.66663 23.3711 2.66663 15.9998ZM21.9078 22.2329C22.6666 21.4741 23.1002 20.3901 23.1002 19.1435V13.1814C23.1002 11.9348 22.7208 10.905 21.962 10.1462C21.2032 9.38737 20.1734 8.95377 18.9268 8.95377H12.9647C10.4173 8.95377 8.73709 10.6882 8.73709 13.1814V19.1435C8.73709 20.3901 9.11649 21.4741 9.9295 22.2329C10.6883 22.9917 11.7723 23.3711 12.9647 23.3711H18.8726C20.065 23.3711 21.149 22.9917 21.9078 22.2329ZM19.7398 13.1272C19.252 13.1272 18.8726 12.7478 18.8726 12.26C18.8726 11.7722 19.252 11.3928 19.7398 11.3928C20.2276 11.3928 20.607 11.7722 20.607 12.26C20.607 12.7478 20.2276 13.1272 19.7398 13.1272ZM15.8916 12.4226C17.897 12.4226 19.6314 14.0486 19.6314 16.1082C19.6314 18.1679 17.9512 19.7939 15.8916 19.7939C13.8319 19.7939 12.2059 18.1137 12.2059 16.1082C12.2059 14.0486 13.8861 12.4226 15.8916 12.4226ZM15.8916 13.7559C14.6007 13.7559 13.5393 14.8067 13.5393 16.1082C13.5393 17.3991 14.59 18.4605 15.8916 18.4605C17.2313 18.4605 18.2981 17.4151 18.2981 16.1082C18.2981 14.8226 17.1988 13.7559 15.8916 13.7559Z" fill="#424852"></path>
</svg>